<svg id="Layer_1" data-name="Layer 1" xmlns="http://www.w3.org/2000/svg" xmlns:xlink="http://www.w3.org/1999/xlink" viewBox="0 0 1529.37 1263.44"><defs><style>.cls-1,.cls-2,.cls-3,.cls-4,.cls-5,.cls-6,.cls-7,.cls-8{fill:none;stroke-miterlimit:10;}.cls-1{stroke:url(#linear-gradient);}.cls-2{stroke:url(#linear-gradient-2);}.cls-3{stroke:url(#linear-gradient-3);}.cls-4{stroke:url(#linear-gradient-4);}.cls-5{stroke:url(#linear-gradient-5);}.cls-6{stroke:url(#linear-gradient-6);}.cls-7,.cls-8{stroke-width:2px;}.cls-7{stroke:url(#linear-gradient-7);}.cls-8{stroke:url(#linear-gradient-8);}.cls-9{fill:url(#radial-gradient);}.cls-10{fill:url(#linear-gradient-9);}.cls-11{fill:url(#linear-gradient-10);}.cls-12{fill:url(#linear-gradient-11);}.cls-13{fill:url(#linear-gradient-12);}.cls-14{fill:url(#linear-gradient-13);}.cls-15{fill:url(#linear-gradient-14);}.cls-16{fill:url(#linear-gradient-15);}.cls-17{fill:url(#linear-gradient-16);}.cls-18{clip-path:url(#clip-path);}.cls-19{fill:url(#linear-gradient-17);}.cls-20{fill:url(#linear-gradient-18);}.cls-21{fill:url(#linear-gradient-19);}.cls-22{fill:url(#linear-gradient-20);}.cls-23{fill:url(#linear-gradient-21);}.cls-24{fill:url(#linear-gradient-22);}.cls-25{fill:url(#linear-gradient-23);}.cls-26{fill:url(#linear-gradient-24);}.cls-27{fill:url(#linear-gradient-25);}.cls-28{fill:url(#linear-gradient-26);}.cls-29{fill:url(#linear-gradient-27);}.cls-30{fill:url(#linear-gradient-28);}.cls-31{fill:url(#linear-gradient-29);}.cls-32{fill:url(#linear-gradient-30);}.cls-33{clip-path:url(#clip-path-2);}.cls-34{fill:url(#linear-gradient-32);}.cls-35{fill:url(#linear-gradient-33);}.cls-36{fill:url(#linear-gradient-34);}.cls-37{fill:url(#linear-gradient-35);}.cls-38{fill:url(#linear-gradient-36);}.cls-39{fill:url(#linear-gradient-37);}.cls-40{fill:url(#linear-gradient-38);}.cls-41{fill:url(#linear-gradient-39);}.cls-42{fill:url(#linear-gradient-40);}.cls-43{fill:url(#linear-gradient-41);}.cls-44{fill:url(#linear-gradient-42);}.cls-45{fill:url(#linear-gradient-43);}.cls-46{fill:url(#linear-gradient-44);}.cls-47{fill:url(#linear-gradient-45);}.cls-48{clip-path:url(#clip-path-3);}.cls-49{fill:url(#linear-gradient-47);}.cls-50{fill:url(#linear-gradient-48);}.cls-51{fill:url(#linear-gradient-49);}.cls-52{fill:url(#linear-gradient-50);}.cls-53{fill:url(#linear-gradient-51);}.cls-54{fill:url(#linear-gradient-52);}.cls-55{fill:url(#linear-gradient-53);}.cls-56{fill:url(#linear-gradient-54);}.cls-57{fill:url(#linear-gradient-55);}.cls-58{fill:url(#linear-gradient-56);}.cls-59{fill:url(#linear-gradient-57);}.cls-60{fill:url(#linear-gradient-58);}.cls-61{fill:url(#linear-gradient-59);}.cls-62{fill:url(#linear-gradient-60);}.cls-63{fill:url(#linear-gradient-62);}.cls-64{fill:url(#linear-gradient-63);}.cls-65{fill:url(#linear-gradient-64);}.cls-66{fill:url(#linear-gradient-65);}.cls-67{fill:url(#linear-gradient-66);}.cls-68{fill:url(#linear-gradient-67);}.cls-69{clip-path:url(#clip-path-4);}.cls-70{fill:url(#linear-gradient-68);}.cls-71{fill:url(#linear-gradient-69);}.cls-72{fill:url(#linear-gradient-70);}.cls-73{fill:url(#linear-gradient-71);}.cls-74{fill:url(#linear-gradient-72);}.cls-75{fill:url(#linear-gradient-73);}.cls-76{fill:url(#linear-gradient-74);}.cls-77{fill:url(#linear-gradient-75);}.cls-78{fill:url(#linear-gradient-76);}.cls-79{fill:url(#linear-gradient-77);}.cls-80{fill:url(#linear-gradient-78);}.cls-81{fill:url(#linear-gradient-79);}.cls-82{fill:url(#linear-gradient-80);}.cls-83{fill:url(#linear-gradient-81);}.cls-84{clip-path:url(#clip-path-5);}.cls-85{fill:url(#linear-gradient-83);}.cls-86{fill:url(#linear-gradient-84);}.cls-87{fill:url(#linear-gradient-85);}.cls-88{fill:url(#linear-gradient-86);}.cls-89{fill:url(#linear-gradient-87);}.cls-90{fill:url(#linear-gradient-88);}.cls-91{fill:url(#linear-gradient-89);}.cls-92{fill:url(#linear-gradient-90);}.cls-93{fill:url(#linear-gradient-91);}.cls-94{fill:url(#linear-gradient-92);}.cls-95{fill:url(#linear-gradient-93);}.cls-96{fill:url(#linear-gradient-94);}.cls-97{fill:url(#linear-gradient-95);}.cls-98{fill:url(#linear-gradient-96);}.cls-99{clip-path:url(#clip-path-6);}.cls-100{fill:url(#linear-gradient-98);}.cls-101{fill:url(#linear-gradient-99);}.cls-102{fill:url(#linear-gradient-100);}.cls-103{fill:url(#linear-gradient-101);}.cls-104{fill:url(#linear-gradient-102);}.cls-105{fill:url(#linear-gradient-103);}.cls-106{fill:url(#linear-gradient-104);}.cls-107{fill:url(#linear-gradient-105);}.cls-108{fill:url(#linear-gradient-106);}.cls-109{fill:url(#linear-gradient-107);}.cls-110{fill:url(#linear-gradient-108);}.cls-111{fill:url(#linear-gradient-109);}.cls-112{fill:url(#linear-gradient-110);}.cls-113{fill:url(#linear-gradient-111);}.cls-114{clip-path:url(#clip-path-7);}.cls-115{fill:url(#linear-gradient-113);}.cls-116{fill:url(#linear-gradient-114);}.cls-117{fill:url(#linear-gradient-115);}.cls-118{fill:url(#linear-gradient-116);}.cls-119{fill:url(#linear-gradient-117);}.cls-120{fill:url(#linear-gradient-118);}.cls-121{fill:url(#linear-gradient-119);}.cls-122{fill:url(#linear-gradient-120);}.cls-123{fill:url(#linear-gradient-121);}.cls-124{fill:url(#linear-gradient-122);}.cls-125{fill:url(#linear-gradient-123);}.cls-126{fill:url(#linear-gradient-124);}.cls-127{fill:url(#linear-gradient-125);}.cls-128{fill:url(#linear-gradient-126);}.cls-129{clip-path:url(#clip-path-8);}.cls-130{fill:url(#linear-gradient-128);}.cls-131{fill:url(#linear-gradient-129);}.cls-132{fill:url(#linear-gradient-130);}.cls-133{fill:url(#linear-gradient-131);}.cls-134{fill:url(#linear-gradient-132);}.cls-135{fill:url(#linear-gradient-133);}.cls-136{fill:url(#linear-gradient-134);}.cls-137{fill:url(#linear-gradient-135);}.cls-138{fill:url(#linear-gradient-136);}.cls-139{fill:url(#linear-gradient-137);}.cls-140{fill:url(#linear-gradient-138);}.cls-141{fill:url(#linear-gradient-139);}.cls-142{fill:url(#linear-gradient-140);}.cls-143{fill:url(#linear-gradient-141);}.cls-144{font-size:201px;font-family:BatmanForeverAlternate;}.cls-145{letter-spacing:-0.02em;}.cls-146{letter-spacing:0.03em;}.cls-147{letter-spacing:0.02em;}.cls-148{letter-spacing:-0.11em;}</style><linearGradient id="linear-gradient" x1="1463.21" y1="926.13" x2="1547.69" y2="926.13" gradientUnits="userSpaceOnUse"><stop offset="0" stop-color="#2fff06"/><stop offset="0.2" stop-color="#39fd1b"/><stop offset="0.46" stop-color="#41fb2e"/><stop offset="0.72" stop-color="#46fa39"/><stop offset="1" stop-color="#48fa3d"/></linearGradient><linearGradient id="linear-gradient-2" x1="1288.02" y1="1031.82" x2="1369.8" y2="1031.82" xlink:href="#linear-gradient"/><linearGradient id="linear-gradient-3" x1="1382.58" y1="964.16" x2="1446.71" y2="964.16" xlink:href="#linear-gradient"/><linearGradient id="linear-gradient-4" x1="348.17" y1="926.13" x2="432.64" y2="926.13" xlink:href="#linear-gradient"/><linearGradient id="linear-gradient-5" x1="526.06" y1="1031.82" x2="607.84" y2="1031.82" xlink:href="#linear-gradient"/><linearGradient id="linear-gradient-6" x1="449.15" y1="964.16" x2="513.28" y2="964.16" xlink:href="#linear-gradient"/><linearGradient id="linear-gradient-7" x1="376.71" y1="369.5" x2="831.11" y2="369.5" xlink:href="#linear-gradient"/><linearGradient id="linear-gradient-8" x1="1079.19" y1="369.5" x2="1533.58" y2="369.5" xlink:href="#linear-gradient"/><radialGradient id="radial-gradient" cx="951.27" cy="699.54" r="290.16" xlink:href="#linear-gradient"/><linearGradient id="linear-gradient-9" x1="1104.72" y1="667.82" x2="1425.16" y2="667.82" xlink:href="#linear-gradient"/><linearGradient id="linear-gradient-10" x1="1029.32" y1="921.61" x2="1404.97" y2="921.61" xlink:href="#linear-gradient"/><linearGradient id="linear-gradient-11" x1="1096.64" y1="794.38" x2="1365.92" y2="794.38" xlink:href="#linear-gradient"/><linearGradient id="linear-gradient-12" x1="984.21" y1="927.67" x2="1157.9" y2="927.67" xlink:href="#linear-gradient"/><linearGradient id="linear-gradient-13" x1="1242.61" y1="699.54" x2="1287.03" y2="699.54" xlink:href="#linear-gradient"/><linearGradient id="linear-gradient-14" x1="1202.43" y1="734.22" x2="1247.86" y2="734.22" xlink:href="#linear-gradient"/><linearGradient id="linear-gradient-15" x1="782.31" y1="345.18" x2="1486.48" y2="345.18" xlink:href="#linear-gradient"/><linearGradient id="linear-gradient-16" x1="62.31" y1="345.18" x2="766.48" y2="345.18" xlink:href="#linear-gradient"/><clipPath id="clip-path" transform="translate(-183.24 -89.31)"><polygon class="cls-1" points="1547.19 883.69 1474.48 840.6 1463.71 840.6 1463.71 1010.92 1547.19 925.76 1547.19 883.69"/></clipPath><linearGradient id="linear-gradient-17" x1="1352.91" y1="843.48" x2="1699.2" y2="843.48" xlink:href="#linear-gradient"/><linearGradient id="linear-gradient-18" x1="1352.91" y1="856.09" x2="1699.2" y2="856.09" xlink:href="#linear-gradient"/><linearGradient id="linear-gradient-19" x1="1352.91" y1="868.7" x2="1699.2" y2="868.7" xlink:href="#linear-gradient"/><linearGradient id="linear-gradient-20" x1="1352.91" y1="881.31" x2="1699.2" y2="881.31" xlink:href="#linear-gradient"/><linearGradient id="linear-gradient-21" x1="1352.91" y1="893.92" x2="1699.2" y2="893.92" xlink:href="#linear-gradient"/><linearGradient id="linear-gradient-22" x1="1352.91" y1="906.52" x2="1699.2" y2="906.52" xlink:href="#linear-gradient"/><linearGradient id="linear-gradient-23" x1="1352.91" y1="919.13" x2="1699.2" y2="919.13" xlink:href="#linear-gradient"/><linearGradient id="linear-gradient-24" x1="1352.91" y1="931.74" x2="1699.2" y2="931.74" xlink:href="#linear-gradient"/><linearGradient id="linear-gradient-25" x1="1352.91" y1="944.35" x2="1699.2" y2="944.35" xlink:href="#linear-gradient"/><linearGradient id="linear-gradient-26" x1="1352.91" y1="956.96" x2="1699.2" y2="956.96" xlink:href="#linear-gradient"/><linearGradient id="linear-gradient-27" x1="1352.91" y1="969.57" x2="1699.2" y2="969.57" xlink:href="#linear-gradient"/><linearGradient id="linear-gradient-28" x1="1352.91" y1="982.18" x2="1699.2" y2="982.18" xlink:href="#linear-gradient"/><linearGradient id="linear-gradient-29" x1="1352.91" y1="994.79" x2="1699.2" y2="994.79" xlink:href="#linear-gradient"/><linearGradient id="linear-gradient-30" x1="1352.91" y1="1007.4" x2="1699.2" y2="1007.4" xlink:href="#linear-gradient"/><clipPath id="clip-path-2" transform="translate(-183.24 -89.31)"><polygon class="cls-2" points="1369.3 883.69 1288.52 956.39 1288.52 1179.9 1369.3 1101.81 1369.3 883.69"/></clipPath><linearGradient id="linear-gradient-32" x1="1003.42" y1="883.4" x2="1629.81" y2="883.4" xlink:href="#linear-gradient"/><linearGradient id="linear-gradient-33" x1="1003.42" y1="906.24" x2="1629.81" y2="906.24" xlink:href="#linear-gradient"/><linearGradient id="linear-gradient-34" x1="1003.42" y1="929.08" x2="1629.81" y2="929.08" xlink:href="#linear-gradient"/><linearGradient id="linear-gradient-35" x1="1003.42" y1="951.91" x2="1629.81" y2="951.91" xlink:href="#linear-gradient"/><linearGradient id="linear-gradient-36" x1="1003.42" y1="974.75" x2="1629.81" y2="974.75" xlink:href="#linear-gradient"/><linearGradient id="linear-gradient-37" x1="1003.42" y1="997.59" x2="1629.81" y2="997.59" xlink:href="#linear-gradient"/><linearGradient id="linear-gradient-38" x1="1003.42" y1="1020.43" x2="1629.81" y2="1020.43" xlink:href="#linear-gradient"/><linearGradient id="linear-gradient-39" x1="1003.42" y1="1043.26" x2="1629.81" y2="1043.26" xlink:href="#linear-gradient"/><linearGradient id="linear-gradient-40" x1="1003.42" y1="1066.1" x2="1629.81" y2="1066.1" xlink:href="#linear-gradient"/><linearGradient id="linear-gradient-41" x1="1003.42" y1="1088.94" x2="1629.81" y2="1088.94" xlink:href="#linear-gradient"/><linearGradient id="linear-gradient-42" x1="1003.42" y1="1111.78" x2="1629.81" y2="1111.78" xlink:href="#linear-gradient"/><linearGradient id="linear-gradient-43" x1="1003.42" y1="1134.62" x2="1629.81" y2="1134.62" xlink:href="#linear-gradient"/><linearGradient id="linear-gradient-44" x1="1003.42" y1="1157.45" x2="1629.81" y2="1157.45" xlink:href="#linear-gradient"/><linearGradient id="linear-gradient-45" x1="1003.42" y1="1180.29" x2="1629.81" y2="1180.29" xlink:href="#linear-gradient"/><clipPath id="clip-path-3" transform="translate(-183.24 -89.31)"><path class="cls-3" d="M1446.21,840.6v183.12L1384.28,1087s-2.7-214.08,0-211.39,36.35-35,36.35-35Z"/></clipPath><linearGradient id="linear-gradient-47" x1="1215.06" y1="845.81" x2="1713.36" y2="845.81" xlink:href="#linear-gradient"/><linearGradient id="linear-gradient-48" x1="1215.06" y1="863.97" x2="1713.36" y2="863.97" xlink:href="#linear-gradient"/><linearGradient id="linear-gradient-49" x1="1215.06" y1="882.13" x2="1713.36" y2="882.13" xlink:href="#linear-gradient"/><linearGradient id="linear-gradient-50" x1="1215.06" y1="900.29" x2="1713.36" y2="900.29" xlink:href="#linear-gradient"/><linearGradient id="linear-gradient-51" x1="1215.06" y1="918.45" x2="1713.36" y2="918.45" xlink:href="#linear-gradient"/><linearGradient id="linear-gradient-52" x1="1215.06" y1="936.61" x2="1713.36" y2="936.61" xlink:href="#linear-gradient"/><linearGradient id="linear-gradient-53" x1="1215.06" y1="954.77" x2="1713.36" y2="954.77" xlink:href="#linear-gradient"/><linearGradient id="linear-gradient-54" x1="1215.06" y1="972.93" x2="1713.36" y2="972.93" xlink:href="#linear-gradient"/><linearGradient id="linear-gradient-55" x1="1215.06" y1="991.09" x2="1713.36" y2="991.09" xlink:href="#linear-gradient"/><linearGradient id="linear-gradient-56" x1="1215.06" y1="1009.25" x2="1713.36" y2="1009.25" xlink:href="#linear-gradient"/><linearGradient id="linear-gradient-57" x1="1215.06" y1="1027.41" x2="1713.36" y2="1027.41" xlink:href="#linear-gradient"/><linearGradient id="linear-gradient-58" x1="1215.06" y1="1045.57" x2="1713.36" y2="1045.57" xlink:href="#linear-gradient"/><linearGradient id="linear-gradient-59" x1="1215.06" y1="1063.73" x2="1713.36" y2="1063.73" xlink:href="#linear-gradient"/><linearGradient id="linear-gradient-60" x1="1215.06" y1="1081.89" x2="1713.36" y2="1081.89" xlink:href="#linear-gradient"/><linearGradient id="linear-gradient-62" x1="1525.83" y1="757.13" x2="1846.28" y2="757.13" gradientTransform="matrix(-1, 0, 0, 1, 1950.49, -89.31)" xlink:href="#linear-gradient"/><linearGradient id="linear-gradient-63" x1="1450.43" y1="1010.92" x2="1826.08" y2="1010.92" gradientTransform="matrix(-1, 0, 0, 1, 1950.49, -89.31)" xlink:href="#linear-gradient"/><linearGradient id="linear-gradient-64" x1="1517.75" y1="883.69" x2="1787.03" y2="883.69" gradientTransform="matrix(-1, 0, 0, 1, 1950.49, -89.31)" xlink:href="#linear-gradient"/><linearGradient id="linear-gradient-65" x1="1405.33" y1="1016.98" x2="1579.01" y2="1016.98" gradientTransform="matrix(-1, 0, 0, 1, 1950.49, -89.31)" xlink:href="#linear-gradient"/><linearGradient id="linear-gradient-66" x1="1480.48" y1="699.54" x2="1524.91" y2="699.54" gradientTransform="matrix(-1, 0, 0, 1, 2133.73, 0)" xlink:href="#linear-gradient"/><linearGradient id="linear-gradient-67" x1="1440.3" y1="734.22" x2="1485.73" y2="734.22" gradientTransform="matrix(-1, 0, 0, 1, 2133.73, 0)" xlink:href="#linear-gradient"/><clipPath id="clip-path-4" transform="translate(-183.24 -89.31)"><polygon class="cls-4" points="348.67 883.69 421.37 840.6 432.14 840.6 432.14 1010.92 348.67 925.76 348.67 883.69"/></clipPath><linearGradient id="linear-gradient-68" x1="196.9" y1="843.48" x2="543.19" y2="843.48" xlink:href="#linear-gradient"/><linearGradient id="linear-gradient-69" x1="196.9" y1="856.09" x2="543.19" y2="856.09" xlink:href="#linear-gradient"/><linearGradient id="linear-gradient-70" x1="196.9" y1="868.7" x2="543.19" y2="868.7" xlink:href="#linear-gradient"/><linearGradient id="linear-gradient-71" x1="196.9" y1="881.31" x2="543.19" y2="881.31" xlink:href="#linear-gradient"/><linearGradient id="linear-gradient-72" x1="196.9" y1="893.92" x2="543.19" y2="893.92" xlink:href="#linear-gradient"/><linearGradient id="linear-gradient-73" x1="196.9" y1="906.52" x2="543.19" y2="906.52" xlink:href="#linear-gradient"/><linearGradient id="linear-gradient-74" x1="196.9" y1="919.13" x2="543.19" y2="919.13" xlink:href="#linear-gradient"/><linearGradient id="linear-gradient-75" x1="196.9" y1="931.74" x2="543.19" y2="931.74" xlink:href="#linear-gradient"/><linearGradient id="linear-gradient-76" x1="196.9" y1="944.35" x2="543.19" y2="944.35" xlink:href="#linear-gradient"/><linearGradient id="linear-gradient-77" x1="196.9" y1="956.96" x2="543.19" y2="956.96" xlink:href="#linear-gradient"/><linearGradient id="linear-gradient-78" x1="196.9" y1="969.57" x2="543.19" y2="969.57" xlink:href="#linear-gradient"/><linearGradient id="linear-gradient-79" x1="196.9" y1="982.18" x2="543.19" y2="982.18" xlink:href="#linear-gradient"/><linearGradient id="linear-gradient-80" x1="196.9" y1="994.79" x2="543.19" y2="994.79" xlink:href="#linear-gradient"/><linearGradient id="linear-gradient-81" x1="196.9" y1="1007.4" x2="543.19" y2="1007.4" xlink:href="#linear-gradient"/><clipPath id="clip-path-5" transform="translate(-183.24 -89.31)"><polygon class="cls-5" points="526.56 883.69 607.34 956.39 607.34 1179.9 526.56 1101.81 526.56 883.69"/></clipPath><linearGradient id="linear-gradient-83" x1="266.79" y1="883.4" x2="893.18" y2="883.4" xlink:href="#linear-gradient"/><linearGradient id="linear-gradient-84" x1="266.79" y1="906.24" x2="893.18" y2="906.24" xlink:href="#linear-gradient"/><linearGradient id="linear-gradient-85" x1="266.79" y1="929.08" x2="893.18" y2="929.08" xlink:href="#linear-gradient"/><linearGradient id="linear-gradient-86" x1="266.79" y1="951.91" x2="893.18" y2="951.91" xlink:href="#linear-gradient"/><linearGradient id="linear-gradient-87" x1="266.79" y1="974.75" x2="893.18" y2="974.75" xlink:href="#linear-gradient"/><linearGradient id="linear-gradient-88" x1="266.79" y1="997.59" x2="893.18" y2="997.59" xlink:href="#linear-gradient"/><linearGradient id="linear-gradient-89" x1="266.79" y1="1020.43" x2="893.18" y2="1020.43" xlink:href="#linear-gradient"/><linearGradient id="linear-gradient-90" x1="266.79" y1="1043.26" x2="893.18" y2="1043.26" xlink:href="#linear-gradient"/><linearGradient id="linear-gradient-91" x1="266.79" y1="1066.1" x2="893.18" y2="1066.1" xlink:href="#linear-gradient"/><linearGradient id="linear-gradient-92" x1="266.79" y1="1088.94" x2="893.18" y2="1088.94" xlink:href="#linear-gradient"/><linearGradient id="linear-gradient-93" x1="266.79" y1="1111.78" x2="893.18" y2="1111.78" xlink:href="#linear-gradient"/><linearGradient id="linear-gradient-94" x1="266.79" y1="1134.62" x2="893.18" y2="1134.62" xlink:href="#linear-gradient"/><linearGradient id="linear-gradient-95" x1="266.79" y1="1157.45" x2="893.18" y2="1157.45" xlink:href="#linear-gradient"/><linearGradient id="linear-gradient-96" x1="266.79" y1="1180.29" x2="893.18" y2="1180.29" xlink:href="#linear-gradient"/><clipPath id="clip-path-6" transform="translate(-183.24 -89.31)"><path class="cls-6" d="M449.65,840.6v183.12L511.58,1087s2.7-214.08,0-211.39-36.35-35-36.35-35Z"/></clipPath><linearGradient id="linear-gradient-98" x1="183.24" y1="845.81" x2="681.54" y2="845.81" xlink:href="#linear-gradient"/><linearGradient id="linear-gradient-99" x1="183.24" y1="863.97" x2="681.54" y2="863.97" xlink:href="#linear-gradient"/><linearGradient id="linear-gradient-100" x1="183.24" y1="882.13" x2="681.54" y2="882.13" xlink:href="#linear-gradient"/><linearGradient id="linear-gradient-101" x1="183.24" y1="900.29" x2="681.54" y2="900.29" xlink:href="#linear-gradient"/><linearGradient id="linear-gradient-102" x1="183.24" y1="918.45" x2="681.54" y2="918.45" xlink:href="#linear-gradient"/><linearGradient id="linear-gradient-103" x1="183.24" y1="936.61" x2="681.54" y2="936.61" xlink:href="#linear-gradient"/><linearGradient id="linear-gradient-104" x1="183.24" y1="954.77" x2="681.54" y2="954.77" xlink:href="#linear-gradient"/><linearGradient id="linear-gradient-105" x1="183.24" y1="972.93" x2="681.54" y2="972.93" xlink:href="#linear-gradient"/><linearGradient id="linear-gradient-106" x1="183.24" y1="991.09" x2="681.54" y2="991.09" xlink:href="#linear-gradient"/><linearGradient id="linear-gradient-107" x1="183.24" y1="1009.25" x2="681.54" y2="1009.25" xlink:href="#linear-gradient"/><linearGradient id="linear-gradient-108" x1="183.24" y1="1027.41" x2="681.54" y2="1027.41" xlink:href="#linear-gradient"/><linearGradient id="linear-gradient-109" x1="183.24" y1="1045.57" x2="681.54" y2="1045.57" xlink:href="#linear-gradient"/><linearGradient id="linear-gradient-110" x1="183.24" y1="1063.73" x2="681.54" y2="1063.73" xlink:href="#linear-gradient"/><linearGradient id="linear-gradient-111" x1="183.24" y1="1081.89" x2="681.54" y2="1081.89" xlink:href="#linear-gradient"/><clipPath id="clip-path-7" transform="translate(-183.24 -89.31)"><polygon class="cls-7" points="830.11 112.53 830.11 272.75 660.46 379.12 605.26 473.36 377.71 626.85 377.71 618.39 815.29 125.99 830.11 112.53"/></clipPath><linearGradient id="linear-gradient-113" x1="262.99" y1="123.39" x2="1303.06" y2="123.39" xlink:href="#linear-gradient"/><linearGradient id="linear-gradient-114" x1="262.99" y1="161.3" x2="1303.06" y2="161.3" xlink:href="#linear-gradient"/><linearGradient id="linear-gradient-115" x1="262.99" y1="199.21" x2="1303.06" y2="199.21" xlink:href="#linear-gradient"/><linearGradient id="linear-gradient-116" x1="262.99" y1="237.12" x2="1303.06" y2="237.12" xlink:href="#linear-gradient"/><linearGradient id="linear-gradient-117" x1="262.99" y1="275.02" x2="1303.06" y2="275.02" xlink:href="#linear-gradient"/><linearGradient id="linear-gradient-118" x1="262.99" y1="312.93" x2="1303.06" y2="312.93" xlink:href="#linear-gradient"/><linearGradient id="linear-gradient-119" x1="262.99" y1="350.84" x2="1303.06" y2="350.84" xlink:href="#linear-gradient"/><linearGradient id="linear-gradient-120" x1="262.99" y1="388.75" x2="1303.06" y2="388.75" xlink:href="#linear-gradient"/><linearGradient id="linear-gradient-121" x1="262.99" y1="426.66" x2="1303.06" y2="426.66" xlink:href="#linear-gradient"/><linearGradient id="linear-gradient-122" x1="262.99" y1="464.56" x2="1303.06" y2="464.56" xlink:href="#linear-gradient"/><linearGradient id="linear-gradient-123" x1="262.99" y1="502.47" x2="1303.06" y2="502.47" xlink:href="#linear-gradient"/><linearGradient id="linear-gradient-124" x1="262.99" y1="540.38" x2="1303.06" y2="540.38" xlink:href="#linear-gradient"/><linearGradient id="linear-gradient-125" x1="262.99" y1="578.29" x2="1303.06" y2="578.29" xlink:href="#linear-gradient"/><linearGradient id="linear-gradient-126" x1="262.99" y1="616.2" x2="1303.06" y2="616.2" xlink:href="#linear-gradient"/><clipPath id="clip-path-8" transform="translate(-183.24 -89.31)"><polygon class="cls-8" points="1080.19 112.53 1080.19 272.75 1249.84 379.12 1305.04 473.36 1532.58 626.85 1532.58 618.39 1095 125.99 1080.19 112.53"/></clipPath><linearGradient id="linear-gradient-128" x1="608.72" y1="123.39" x2="1648.79" y2="123.39" xlink:href="#linear-gradient"/><linearGradient id="linear-gradient-129" x1="608.72" y1="161.3" x2="1648.79" y2="161.3" xlink:href="#linear-gradient"/><linearGradient id="linear-gradient-130" x1="608.72" y1="199.21" x2="1648.79" y2="199.21" xlink:href="#linear-gradient"/><linearGradient id="linear-gradient-131" x1="608.72" y1="237.12" x2="1648.79" y2="237.12" xlink:href="#linear-gradient"/><linearGradient id="linear-gradient-132" x1="608.72" y1="275.02" x2="1648.79" y2="275.02" xlink:href="#linear-gradient"/><linearGradient id="linear-gradient-133" x1="608.72" y1="312.93" x2="1648.79" y2="312.93" xlink:href="#linear-gradient"/><linearGradient id="linear-gradient-134" x1="608.72" y1="350.84" x2="1648.79" y2="350.84" xlink:href="#linear-gradient"/><linearGradient id="linear-gradient-135" x1="608.72" y1="388.75" x2="1648.79" y2="388.75" xlink:href="#linear-gradient"/><linearGradient id="linear-gradient-136" x1="608.72" y1="426.66" x2="1648.79" y2="426.66" xlink:href="#linear-gradient"/><linearGradient id="linear-gradient-137" x1="608.72" y1="464.56" x2="1648.79" y2="464.56" xlink:href="#linear-gradient"/><linearGradient id="linear-gradient-138" x1="608.72" y1="502.47" x2="1648.79" y2="502.47" xlink:href="#linear-gradient"/><linearGradient id="linear-gradient-139" x1="608.72" y1="540.38" x2="1648.79" y2="540.38" xlink:href="#linear-gradient"/><linearGradient id="linear-gradient-140" x1="608.72" y1="578.29" x2="1648.79" y2="578.29" xlink:href="#linear-gradient"/><linearGradient id="linear-gradient-141" x1="608.72" y1="616.2" x2="1648.79" y2="616.2" xlink:href="#linear-gradient"/></defs><path class="cls-9" d="M1187.9,690.2c-34.68,345.66-244.85,344.6-244.85,344.6C716.91,978.69,714.64,690.2,714.64,690.2s11.34-26.07,27.21-40.81l23.23-81s-2.83-33.44,10.77-41.94c0,0,12.47,2.83,35.14-13.6,0,0,16.44,1.7,32.88-32.31,0,0-1.14-10.2,18.13-27.2,0,0,21-7.37,32.31-20.41,0,0,38.54-65.74,69.71-68.58,0,0,7.94-1.7,41.94,34,0,0,49.88,18.7,60.08,66.31,0,0,19.27,35.71,43.64,56.68,0,0,30.61,9.07,38.55,30a210.81,210.81,0,0,1,5.66,77.65s2.84,32.3,26.07,42.5C1180,671.49,1188.17,687.51,1187.9,690.2Z" transform="translate(-183.24 -89.31)"/><path d="M788.32,592.71c2.51-2.7,5.08-5.31,7.63-8s5.13-5.26,7.73-7.86q7.77-7.82,15.7-15.48l-.23,1.07c-1.65-4.12-3-8.3-4.32-12.54-.64-2.11-1.21-4.25-1.73-6.4s-1-4.31-1.39-6.49a58.32,58.32,0,0,1-1.07-13.26,23.34,23.34,0,0,1,1.23-6.56,9.75,9.75,0,0,1,4-5.23,10.07,10.07,0,0,0-3.41,5.4,23.89,23.89,0,0,0-.73,6.42,47.15,47.15,0,0,0,.5,6.49c.28,2.15.67,4.3,1.14,6.42.9,4.27,2.07,8.48,3.36,12.65s2.74,8.32,4.29,12.37l.24.62-.47.45q-7.95,7.63-16,15.13c-2.69,2.5-5.41,5-8.13,7.44S791.11,590.31,788.32,592.71Z" transform="translate(-183.24 -89.31)"/><path d="M840.35,487.23l1,33c.37,11,.76,22,1.31,33,.26,5.49.56,11,.94,16.47s.77,11,1.27,16.44,1.11,10.93,2,16.36a75,75,0,0,0,3.84,16,43.52,43.52,0,0,1-2.87-7.76c-.76-2.66-1.37-5.35-1.94-8.06-1.07-5.42-1.87-10.88-2.53-16.36-1.33-11-2.09-22-2.65-33s-.82-22-.87-33.06S839.9,498.24,840.35,487.23Z" transform="translate(-183.24 -89.31)"/><path d="M889.21,580.24q.57,13.18.78,26.36c.16,8.78.2,17.57.22,26.35s-.06,17.57-.22,26.36-.39,17.57-.78,26.35q-.59-13.17-.78-26.35c-.16-8.79-.2-17.57-.22-26.36s.06-17.57.22-26.35S888.82,589,889.21,580.24Z" transform="translate(-183.24 -89.31)"/><path d="M884.2,441.76q.57,11.79.77,23.57c.16,7.86.21,15.71.23,23.57s-.06,15.71-.22,23.57-.39,15.71-.78,23.56q-.59-11.78-.78-23.56c-.16-7.86-.2-15.71-.22-23.57s.06-15.71.22-23.57S883.81,449.62,884.2,441.76Z" transform="translate(-183.24 -89.31)"/><path d="M901.55,421.46q.59,11.32.78,22.63c.16,7.55.2,15.09.22,22.64s-.06,15.08-.22,22.63-.39,15.09-.78,22.63q-.59-11.31-.78-22.63c-.16-7.55-.2-15.09-.22-22.63s.06-15.09.22-22.64S901.16,429,901.55,421.46Z" transform="translate(-183.24 -89.31)"/><path d="M916.41,626.72c.18-5.31.61-10.61,1.2-15.9s1.34-10.56,2.45-15.77c.53-2.61,1.15-5.21,1.89-7.78a64.33,64.33,0,0,1,2.59-7.61,34,34,0,0,1,3.89-7.15,12.76,12.76,0,0,1,6.71-5l-.62,1.08a173.4,173.4,0,0,1-3.63-17.37q-1.39-8.75-2.11-17.58c-.49-5.88-.65-11.79-.62-17.7s.33-11.81.91-17.69a154.44,154.44,0,0,1,2.58-17.52c.28-1.45.58-2.9.94-4.33s.68-2.87,1-4.3c.8-2.85,1.54-5.7,2.5-8.5s1.93-5.57,3-8.34c.53-1.38,1.15-2.72,1.72-4.08s1.16-2.71,1.83-4l1.94-4,2.12-3.88,1.06-1.94,1.17-1.87,2.33-3.74-2.15,3.84L948,437.52l-1,2-2,3.94-1.79,4a149.38,149.38,0,0,0-6,16.51c-.89,2.79-1.56,5.64-2.3,8.47l-.94,4.29c-.33,1.43-.59,2.86-.84,4.31-1.06,5.75-1.86,11.56-2.37,17.38a210.72,210.72,0,0,0-.08,35.08q.64,8.76,2,17.45a171.25,171.25,0,0,0,3.46,17.18l.22.85-.85.22a11.43,11.43,0,0,0-5.82,4.32,32.55,32.55,0,0,0-3.85,6.73,65.31,65.31,0,0,0-2.7,7.4c-.77,2.52-1.45,5.08-2,7.66-1.18,5.15-2.14,10.37-2.91,15.62S916.86,621.43,916.41,626.72Z" transform="translate(-183.24 -89.31)"/><path d="M974.84,369.69l-3.23,36.73c-1,12.25-2,24.49-2.82,36.75s-1.51,24.51-1.9,36.78c-.22,6.14-.24,12.27-.26,18.41l.2,9.21.59,9.19c-1.87-12.17-2.14-24.54-2.09-36.84l0-4.61.13-4.62c.1-3.07.15-6.15.29-9.23.28-6.14.6-12.29,1-18.43.86-12.27,1.91-24.53,3.27-36.76S973,381.84,974.84,369.69Z" transform="translate(-183.24 -89.31)"/><path d="M979.89,719.67c-.61-14.89-1-29.79-1.28-44.69s-.37-29.8-.33-44.71.36-29.81,1-44.71c.35-7.45.79-14.91,1.53-22.35.38-3.72.81-7.44,1.46-11.15.32-1.85.72-3.7,1.22-5.54a23.44,23.44,0,0,1,.91-2.76,10,10,0,0,1,1.55-2.71l.1-.11.15-.09,10.22-5.64-.48.95c-1.46-11.79-2.59-23.59-3.5-35.42s-1.47-23.68-1.62-35.54a279.76,279.76,0,0,1,1.47-35.56,99,99,0,0,1,3.46-17.46,35.71,35.71,0,0,1,3.59-8.15,12.77,12.77,0,0,1,6.6-5.72,12.67,12.67,0,0,0-6.38,5.85,36.15,36.15,0,0,0-3.36,8.16,98.53,98.53,0,0,0-3.07,17.42,297,297,0,0,0-.93,35.43c.3,11.83,1.06,23.64,2,35.44s2.14,23.58,3.64,35.3l.08.64-.56.31-10.19,5.69.24-.19a13.79,13.79,0,0,0-2,4.68c-.47,1.75-.85,3.55-1.16,5.37-.64,3.63-1.09,7.31-1.48,11-.76,7.38-1.23,14.81-1.61,22.24-.75,14.86-1,29.75-1.27,44.64s-.3,29.79-.25,44.68S979.75,704.77,979.89,719.67Z" transform="translate(-183.24 -89.31)"/><path d="M1006,568.34a137.72,137.72,0,0,0,8.67-17.57c.6-1.51,1.28-3,1.84-4.53l1.71-4.58c.55-1.54,1-3.1,1.54-4.64s1-3.1,1.44-4.68a169.21,169.21,0,0,0,6.7-38.38c.17-1.62.13-3.25.18-4.87l.11-4.88c.08-1.63-.08-3.25-.12-4.88l-.21-4.87c-.37-6.52-.88-13.11-.71-19.68a92,92,0,0,1,2.16-19.62A30.26,30.26,0,0,1,1033,426a12.07,12.07,0,0,1,3.48-3.53,6.58,6.58,0,0,1,4.73-1,6.44,6.44,0,0,0-4.57,1.27,11.89,11.89,0,0,0-3.2,3.57,29.69,29.69,0,0,0-3.26,9.09,91.82,91.82,0,0,0-1.57,19.39q.07,4.89.33,9.77c.14,3.27.5,6.49.65,9.78l.26,4.93c.06,1.65.24,3.29.17,4.94l-.06,4.94c0,1.64,0,3.29-.15,4.93a161.7,161.7,0,0,1-7.23,38.72A141.32,141.32,0,0,1,1006,568.34Z" transform="translate(-183.24 -89.31)"/><path d="M1023.61,618.5c1.89-6.22,3.83-12.43,5.67-18.67s3.75-12.45,5.52-18.7c3.57-12.5,7.14-25,10-37.67.68-3.16,1.49-6.31,2.06-9.5l.93-4.76.73-4.79c.11-.8.27-1.6.33-2.4l.21-2.4.42-4.85a47.55,47.55,0,0,1,.54-4.91c.29-1.62.49-3.25.94-4.84a71.67,71.67,0,0,1,7-18.32,75.56,75.56,0,0,1,5.37-8.2,54.28,54.28,0,0,1,6.49-7.3,69.68,69.68,0,0,0-11,16,70.9,70.9,0,0,0-6.4,18.18c-.39,1.57-.54,3.17-.78,4.76a47.93,47.93,0,0,0-.47,4.79l-.38,4.87-.19,2.46c-.06.82-.21,1.63-.32,2.44l-.69,4.86-.89,4.82-.45,2.41-.51,2.39-1,4.78c-.75,3.18-1.56,6.33-2.35,9.49l-2.56,9.44c-1.77,6.26-3.55,12.53-5.54,18.73s-4,12.39-6.06,18.56S1025.93,612.42,1023.61,618.5Z" transform="translate(-183.24 -89.31)"/><path d="M1069.83,580.24q.72-11.68,1.82-23.34c.7-7.77,1.52-15.52,2.37-23.28s1.78-15.49,2.8-23.23,2.12-15.46,3.37-23.16q-.72,11.68-1.81,23.34c-.71,7.77-1.53,15.52-2.38,23.28s-1.79,15.49-2.81,23.23S1071.08,572.53,1069.83,580.24Z" transform="translate(-183.24 -89.31)"/><path d="M1105.72,568.34q-.42,12.58-1.21,25.14c-.5,8.37-1.12,16.74-1.76,25.1s-1.39,16.71-2.21,25.06-1.71,16.69-2.76,25q.42-12.58,1.21-25.14c.5-8.37,1.12-16.74,1.76-25.1s1.39-16.71,2.21-25.06S1104.67,576.67,1105.72,568.34Z" transform="translate(-183.24 -89.31)"/><path d="M1132.92,559a56,56,0,0,1-.78-6.52c-.15-2.18-.2-4.35-.22-6.53s.06-4.35.22-6.52a55.72,55.72,0,0,1,.78-6.52,51.75,51.75,0,0,1,.78,6.52c.16,2.17.2,4.35.22,6.52s-.06,4.35-.22,6.53A53.9,53.9,0,0,1,1132.92,559Z" transform="translate(-183.24 -89.31)"/><rect x="599.29" y="662.21" width="131.12" height="36.79"/><rect x="795.02" y="662.21" width="131.12" height="36.79"/><polygon class="cls-10" points="1425.16 692.05 1289.17 607.23 1220.51 607.23 1104.72 720.33 1120.87 728.4 1213.78 638.2 1297.25 636.85 1414.39 704.17 1425.16 692.05"/><polygon class="cls-11" points="1404.96 713.6 1396.89 728.4 1369.96 713.6 1353.8 737.83 1379.38 749.95 1368.61 759.37 1291.87 713.6 1219.16 713.6 1087.21 846.89 1087.21 1133.67 1029.32 1187.53 1029.32 1152.52 1071.06 1110.78 1071.06 1074.43 1029.32 1113.48 1029.32 1083.86 1071.06 1040.77 1069.71 1004.42 1029.32 1043.46 1029.32 1012.5 1072.4 969.41 1072.4 930.37 1029.32 972.1 1029.32 790.34 1084.52 736.48 1131.64 737.83 1217.14 655.7 1290.52 655.7 1404.96 713.6"/><polygon class="cls-12" points="1365.92 766.1 1294.56 728.4 1223.2 728.4 1096.64 853.62 1104.72 860.35 1231.28 743.22 1291.87 741.87 1356.49 776.88 1365.92 766.1"/><polygon class="cls-13" points="1157.9 607.23 1157.9 655.7 1018.55 785.63 1018.55 1213.78 984.21 1248.12 984.21 773.51 1091.06 671.22 1157.9 607.23"/><path class="cls-14" d="M1274.05,661.53l.25,99-20,19.15V661.53s-22.38-21.3-5.21-36.16a24.62,24.62,0,0,1,31.57-.46C1288.28,631.24,1292.17,642.46,1274.05,661.53Z" transform="translate(-183.24 -89.31)"/><path class="cls-15" d="M1235.45,698.61s23.62-23.2,5.69-38.45a24.08,24.08,0,0,0-34.64,4c-6,8.13-7.52,19.93,11,34.46l1.09,115.25L1236,797.18Z" transform="translate(-183.24 -89.31)"/><polygon class="cls-16" points="871.17 30.29 782.31 0 782.31 242.35 1481.09 690.37 1486.48 676.34 1398.29 582.99 1106.79 395.84 1061.44 305.63 873.86 185.8 871.17 30.29"/><polygon class="cls-17" points="677.61 30.29 766.48 0 766.48 242.35 67.69 690.37 62.31 676.34 150.5 582.99 441.99 395.84 487.35 305.63 674.92 185.8 677.61 30.29"/><g class="cls-18"><path class="cls-19" d="M1353.41,846.65h.36l344.93.1-.26.26v-7.16l.25.25-345.29-.25h0Zm0,.71v-7.51h0l345.29-.24h.25v7.66h-.25Z" transform="translate(-183.24 -89.31)"/><path class="cls-20" d="M1353.41,859.26h.36l344.93.1-.26.26v-7.16l.25.25-345.29-.25h0Zm0,.71v-7.51h0l345.29-.24h.25v7.66h-.25Z" transform="translate(-183.24 -89.31)"/><path class="cls-21" d="M1353.41,871.87h.36l344.93.1-.26.25v-7.15l.25.25-345.29-.25h0Zm0,.71v-7.51h0l345.29-.24h.25v7.66h-.25Z" transform="translate(-183.24 -89.31)"/><path class="cls-22" d="M1353.41,884.48h.36l344.93.1-.26.25v-7.15l.25.25-345.29-.25h0Zm0,.71v-7.51h0l345.29-.24h.25v7.66h-.25Z" transform="translate(-183.24 -89.31)"/><path class="cls-23" d="M1353.41,897.09h.36l344.93.1-.26.25v-7.16l.25.25-345.29-.24h0Zm0,.71v-7.52h0L1698.7,890h.25v7.67h-.25Z" transform="translate(-183.24 -89.31)"/><path class="cls-24" d="M1353.41,909.7h.36l344.93.1-.26.25v-7.16l.25.25-345.29-.24h0Zm0,.71v-7.52h0l345.29-.25h.25v7.67h-.25Z" transform="translate(-183.24 -89.31)"/><path class="cls-25" d="M1353.41,922.31h.36l344.93.1-.26.25V915.5l.25.25-345.29-.24h0Zm0,.7V915.5h0l345.29-.25h.25v7.67h-.25Z" transform="translate(-183.24 -89.31)"/><path class="cls-26" d="M1353.41,934.92h.36l344.93.09-.26.26v-7.16l.25.25-345.29-.24h0Zm0,.7v-7.51h0l345.29-.25h.25v7.66h-.25Z" transform="translate(-183.24 -89.31)"/><path class="cls-27" d="M1353.41,947.53h.36l344.93.09-.26.26v-7.16l.25.25-345.29-.24h0Zm0,.7v-7.51h0l345.29-.25h.25v7.66h-.25Z" transform="translate(-183.24 -89.31)"/><path class="cls-28" d="M1353.41,960.13h.36l344.93.1-.26.26v-7.16l.25.25-345.29-.24h0Zm0,.71v-7.51h0l345.29-.25h.25v7.66h-.25Z" transform="translate(-183.24 -89.31)"/><path class="cls-29" d="M1353.41,972.74h.36l344.93.1-.26.26v-7.16l.25.25-345.29-.25h0Zm0,.71v-7.51h0l345.29-.24h.25v7.66h-.25Z" transform="translate(-183.24 -89.31)"/><path class="cls-30" d="M1353.41,985.35h.36l344.93.1-.26.26v-7.16l.25.25-345.29-.25h0Zm0,.71v-7.51h0l345.29-.24h.25V986h-.25Z" transform="translate(-183.24 -89.31)"/><path class="cls-31" d="M1353.41,998h.36l344.93.1-.26.26v-7.16l.25.25-345.29-.25h0Zm0,.71v-7.51h0l345.29-.24h.25v7.66h-.25Z" transform="translate(-183.24 -89.31)"/><path class="cls-32" d="M1353.41,1010.57h.36l344.93.1-.26.25v-7.15l.25.25-345.29-.25h0Zm0,.71v-7.51h0l345.29-.24h.25v7.66h-.25Z" transform="translate(-183.24 -89.31)"/></g><polygon class="cls-1" points="1363.95 794.38 1291.24 751.29 1280.47 751.29 1280.47 921.61 1363.95 836.45 1363.95 794.38"/><g class="cls-33"><path class="cls-34" d="M1003.43,889.48h.35l625,.09-.25.26v-13l.25.25-625.38-.25h0Zm0,.7V876.87h0l625.38-.24h.25v13.46h-.26Z" transform="translate(-183.24 -89.31)"/><path class="cls-35" d="M1003.43,912.31h.35l625,.1-.25.26v-13l.25.25-625.38-.24h0Zm0,.71V899.7h0l625.38-.25h.25v13.47h-.26Z" transform="translate(-183.24 -89.31)"/><path class="cls-36" d="M1003.43,935.15h.35l625,.1-.25.26v-13l.25.25-625.38-.24h0Zm0,.71V922.54h0l625.38-.25h.25v13.47h-.26Z" transform="translate(-183.24 -89.31)"/><path class="cls-37" d="M1003.43,958h.35l625,.1-.25.25v-13l.25.25-625.38-.25h0Zm0,.71V945.38h0l625.38-.24h.25V958.6h-.26Z" transform="translate(-183.24 -89.31)"/><path class="cls-38" d="M1003.43,980.83h.35l625,.1-.25.25v-13l.25.25-625.38-.25h0Zm0,.7V968.22h0l625.38-.24h.25v13.47h-.26Z" transform="translate(-183.24 -89.31)"/><path class="cls-39" d="M1003.43,1003.67h.35l625,.09-.25.26v-13l.25.25-625.38-.24h0Zm0,.7V991.05h0l625.38-.25h.25v13.47h-.26Z" transform="translate(-183.24 -89.31)"/><path class="cls-40" d="M1003.43,1026.5h.35l625,.1-.25.26v-13l.25.25-625.38-.24h0Zm0,.71v-13.32h0l625.38-.25h.25v13.47h-.26Z" transform="translate(-183.24 -89.31)"/><path class="cls-41" d="M1003.43,1049.34h.35l625,.1-.25.25v-13l.25.25-625.38-.24h0Zm0,.71v-13.32h0l625.38-.25h.25V1050h-.26Z" transform="translate(-183.24 -89.31)"/><path class="cls-42" d="M1003.43,1072.18h.35l625,.1-.25.25v-13l.25.25-625.38-.25h0Zm0,.71v-13.32h0l625.38-.24h.25v13.47h-.26Z" transform="translate(-183.24 -89.31)"/><path class="cls-43" d="M1003.43,1095h.35l625,.1-.25.25v-13l.25.25-625.38-.25h0Zm0,.7v-13.31h0l625.38-.24h.25v13.47h-.26Z" transform="translate(-183.24 -89.31)"/><path class="cls-44" d="M1003.43,1117.86h.35l625,.09-.25.26v-13l.25.25-625.38-.24h0Zm0,.7v-13.32h0l625.38-.25h.25v13.47h-.26Z" transform="translate(-183.24 -89.31)"/><path class="cls-45" d="M1003.43,1140.69h.35l625,.1-.25.26v-13l.25.25-625.38-.24h0Zm0,.71v-13.32h0l625.38-.25h.25v13.47h-.26Z" transform="translate(-183.24 -89.31)"/><path class="cls-46" d="M1003.43,1163.53h.35l625,.1-.25.25v-13l.25.25-625.38-.24h0Zm0,.71v-13.32h0l625.38-.24h.25v13.47h-.26Z" transform="translate(-183.24 -89.31)"/><path class="cls-47" d="M1003.43,1186.37h.35l625,.1-.25.25v-13l.25.25-625.38-.25h0Zm0,.71v-13.32h0l625.38-.24h.25V1187h-.26Z" transform="translate(-183.24 -89.31)"/></g><polygon class="cls-2" points="1186.06 794.38 1105.28 867.09 1105.28 1090.59 1186.06 1012.5 1186.06 794.38"/><g class="cls-48"><path class="cls-49" d="M1215.07,850.56h.35l496.94.1-.25.25V840.6l.25.25-497.29-.24h0Zm0,.71V840.6h0l497.29-.25h.25v10.82h-.26Z" transform="translate(-183.24 -89.31)"/><path class="cls-50" d="M1215.07,868.72h.35l496.94.1-.25.25V858.76l.25.25-497.29-.24h0Zm0,.71V858.76h0l497.29-.25h.25v10.82h-.26Z" transform="translate(-183.24 -89.31)"/><path class="cls-51" d="M1215.07,886.88h.35l496.94.1-.25.25V876.92l.25.25-497.29-.24h0Zm0,.71V876.92h0l497.29-.25h.25v10.82h-.26Z" transform="translate(-183.24 -89.31)"/><path class="cls-52" d="M1215.07,905h.35l496.94.1-.25.25v-10.3l.25.25-497.29-.25h0Zm0,.71V895.09h0l497.29-.24h.25v10.82h-.26Z" transform="translate(-183.24 -89.31)"/><path class="cls-53" d="M1215.07,923.2h.35l496.94.1-.25.25v-10.3l.25.25-497.29-.25h0Zm0,.71V913.25h0l497.29-.24h.25v10.81h-.26Z" transform="translate(-183.24 -89.31)"/><path class="cls-54" d="M1215.07,941.36h.35l496.94.1-.25.25v-10.3l.25.25-497.29-.25h0Zm0,.71V931.41h0l497.29-.24h.25V942h-.26Z" transform="translate(-183.24 -89.31)"/><path class="cls-55" d="M1215.07,959.52h.35l496.94.1-.25.25v-10.3l.25.25-497.29-.25h0Zm0,.71V949.57h0l497.29-.24h.25v10.81h-.26Z" transform="translate(-183.24 -89.31)"/><path class="cls-56" d="M1215.07,977.68h.35l496.94.1-.25.25v-10.3l.25.25-497.29-.25h0Zm0,.71V967.73h0l497.29-.24h.25v10.81h-.26Z" transform="translate(-183.24 -89.31)"/><path class="cls-57" d="M1215.07,995.84h.35l496.94.1-.25.26V985.89l.25.25-497.29-.25h0Zm0,.71V985.89h0l497.29-.24h.25v10.81h-.26Z" transform="translate(-183.24 -89.31)"/><path class="cls-58" d="M1215.07,1014h.35l496.94.1-.25.26v-10.31l.25.25-497.29-.25h0Zm0,.71v-10.66h0l497.29-.24h.25v10.81h-.26Z" transform="translate(-183.24 -89.31)"/><path class="cls-59" d="M1215.07,1032.16h.35l496.94.1-.25.26v-10.31l.25.25-497.29-.25h0Zm0,.71v-10.66h0l497.29-.24h.25v10.81h-.26Z" transform="translate(-183.24 -89.31)"/><path class="cls-60" d="M1215.07,1050.32h.35l496.94.1-.25.26v-10.31l.25.25-497.29-.25h0Zm0,.71v-10.66h0l497.29-.24h.25v10.81h-.26Z" transform="translate(-183.24 -89.31)"/><path class="cls-61" d="M1215.07,1068.48h.35l496.94.1-.25.26v-10.31l.25.25-497.29-.25h0Zm0,.71v-10.66h0l497.29-.24h.25v10.81h-.26Z" transform="translate(-183.24 -89.31)"/><path class="cls-62" d="M1215.07,1086.64h.35l496.94.1-.25.26v-10.31l.25.25-497.29-.25h0Zm0,.71v-10.66h0l497.29-.24h.25v10.81h-.26Z" transform="translate(-183.24 -89.31)"/></g><path class="cls-3" d="M1446.21,840.6v183.12L1384.28,1087s-2.7-214.08,0-211.39,36.35-35,36.35-35Z" transform="translate(-183.24 -89.31)"/><polygon class="cls-63" points="104.21 692.05 240.2 607.23 308.87 607.23 424.66 720.33 408.5 728.4 315.6 638.2 232.12 636.85 114.98 704.17 104.21 692.05"/><polygon class="cls-64" points="124.41 713.6 132.49 728.4 159.42 713.6 175.57 737.83 149.99 749.95 160.76 759.37 237.51 713.6 310.21 713.6 442.16 846.89 442.16 1133.67 500.06 1187.53 500.06 1152.52 458.32 1110.78 458.32 1074.43 500.06 1113.48 500.06 1083.86 458.32 1040.77 459.66 1004.42 500.06 1043.46 500.06 1012.5 456.97 969.41 456.97 930.37 500.06 972.1 500.06 790.34 444.85 736.48 397.73 737.83 312.23 655.7 238.85 655.7 124.41 713.6"/><polygon class="cls-65" points="163.46 766.1 234.81 728.4 306.17 728.4 432.74 853.62 424.66 860.35 298.1 743.22 237.51 741.87 172.88 776.88 163.46 766.1"/><polygon class="cls-66" points="371.48 607.23 371.48 655.7 510.83 785.63 510.83 1213.78 545.16 1248.12 545.16 773.51 438.32 671.22 371.48 607.23"/><path class="cls-67" d="M621.81,661.53l-.25,99,20,19.15V661.53s22.38-21.3,5.21-36.16a24.62,24.62,0,0,0-31.57-.46C607.58,631.24,603.69,642.46,621.81,661.53Z" transform="translate(-183.24 -89.31)"/><path class="cls-68" d="M660.41,698.61s-23.62-23.2-5.69-38.45a24.08,24.08,0,0,1,34.64,4c6,8.13,7.52,19.93-11,34.46l-1.09,115.25-17.43-16.68Z" transform="translate(-183.24 -89.31)"/><g class="cls-69"><path class="cls-70" d="M542.44,847.36l-345.28-.1h-.26V839.6h.25l345.28.24h0v7.51Zm0-.71v-6.8h0l-345.28.25.25-.25V847l-.25-.26,344.93-.1Z" transform="translate(-183.24 -89.31)"/><path class="cls-71" d="M542.44,860l-345.28-.1h-.26v-7.66h.25l345.28.24h0V860Zm0-.71v-6.8h0l-345.28.25.25-.25v7.16l-.25-.26,344.93-.1Z" transform="translate(-183.24 -89.31)"/><path class="cls-72" d="M542.44,872.58l-345.28-.1h-.26v-7.66h.25l345.28.24h0v7.51Zm0-.71v-6.8h0l-345.28.25.25-.25v7.15l-.25-.25,344.93-.1Z" transform="translate(-183.24 -89.31)"/><path class="cls-73" d="M542.44,885.19l-345.28-.1h-.26v-7.66h.25l345.28.24h0v7.51Zm0-.71v-6.8h0l-345.28.25.25-.25v7.15l-.25-.25,344.93-.1Z" transform="translate(-183.24 -89.31)"/><path class="cls-74" d="M542.44,897.8l-345.28-.1h-.26V890h.25l345.28.25h0v7.52Zm0-.71v-6.81h0l-345.28.24.25-.25v7.16l-.25-.25,344.93-.1Z" transform="translate(-183.24 -89.31)"/><path class="cls-75" d="M542.44,910.41l-345.28-.1h-.26v-7.67h.25l345.28.25h0v7.52Zm0-.71v-6.81h0l-345.28.24.25-.25v7.16l-.25-.25,344.93-.1Z" transform="translate(-183.24 -89.31)"/><path class="cls-76" d="M542.44,923l-345.28-.09h-.26v-7.67h.25l345.28.25h0V923Zm0-.7V915.5h0l-345.28.24.25-.25v7.16l-.25-.25,344.93-.1Z" transform="translate(-183.24 -89.31)"/><path class="cls-77" d="M542.44,935.62l-345.28-.09h-.26v-7.66h.25l345.28.25h0v7.51Zm0-.7v-6.81h0l-345.28.24.25-.25v7.16l-.25-.26,344.93-.09Z" transform="translate(-183.24 -89.31)"/><path class="cls-78" d="M542.44,948.23l-345.28-.1h-.26v-7.66h.25l345.28.25h0v7.51Zm0-.7v-6.81h0L197.16,941l.25-.25v7.16l-.25-.26,344.93-.09Z" transform="translate(-183.24 -89.31)"/><path class="cls-79" d="M542.44,960.84l-345.28-.1h-.26v-7.66h.25l345.28.25h0v7.51Zm0-.71v-6.8h0l-345.28.24.25-.25v7.16l-.25-.26,344.93-.1Z" transform="translate(-183.24 -89.31)"/><path class="cls-80" d="M542.44,973.45l-345.28-.1h-.26v-7.66h.25l345.28.24h0v7.51Zm0-.71v-6.8h0l-345.28.25.25-.25v7.16l-.25-.26,344.93-.1Z" transform="translate(-183.24 -89.31)"/><path class="cls-81" d="M542.44,986.06,197.16,986h-.26V978.3h.25l345.28.24h0v7.51Zm0-.71v-6.8h0l-345.28.25.25-.25v7.16l-.25-.26,344.93-.1Z" transform="translate(-183.24 -89.31)"/><path class="cls-82" d="M542.44,998.67l-345.28-.1h-.26v-7.66h.25l345.28.24h0v7.51Zm0-.71v-6.8h0l-345.28.25.25-.25v7.16l-.25-.26,344.93-.1Z" transform="translate(-183.24 -89.31)"/><path class="cls-83" d="M542.44,1011.28l-345.28-.1h-.26v-7.66h.25l345.28.24h0v7.51Zm0-.71v-6.8h0l-345.28.25.25-.25v7.15l-.25-.25,344.93-.1Z" transform="translate(-183.24 -89.31)"/></g><polygon class="cls-4" points="165.43 794.38 238.13 751.29 248.9 751.29 248.9 921.61 165.43 836.45 165.43 794.38"/><g class="cls-84"><path class="cls-85" d="M892.43,890.18,267,890.08h-.25V876.62H267l625.39.24h0v13.31Zm0-.7V876.87h0L267,877.12l.25-.25v13l-.26-.26,625-.09Z" transform="translate(-183.24 -89.31)"/><path class="cls-86" d="M892.43,913,267,912.92h-.25V899.45H267l625.39.25h0V913Zm0-.71V899.7h0L267,900l.25-.25v13l-.26-.26,625-.1Z" transform="translate(-183.24 -89.31)"/><path class="cls-87" d="M892.43,935.86,267,935.76h-.25V922.29H267l625.39.25h0v13.32Zm0-.71V922.54h0L267,922.79l.25-.25v13l-.26-.26,625-.1Z" transform="translate(-183.24 -89.31)"/><path class="cls-88" d="M892.43,958.7,267,958.6h-.25V945.13H267l625.39.24h0V958.7Zm0-.71V945.38h0L267,945.63l.25-.25v13l-.26-.25,625-.1Z" transform="translate(-183.24 -89.31)"/><path class="cls-89" d="M892.43,981.53,267,981.44h-.25V968H267l625.39.24h0v13.31Zm0-.7V968.22h0L267,968.47l.25-.25v13l-.26-.25,625-.1Z" transform="translate(-183.24 -89.31)"/><path class="cls-90" d="M892.43,1004.37l-625.39-.1h-.25V990.8H267l625.39.25h0v13.32Zm0-.7V991.05h0L267,991.3l.25-.25v13l-.26-.26,625-.09Z" transform="translate(-183.24 -89.31)"/><path class="cls-91" d="M892.43,1027.21l-625.39-.1h-.25v-13.47H267l625.39.25h0v13.32Zm0-.71v-12.61h0l-625.39.24.25-.25v13l-.26-.26,625-.1Z" transform="translate(-183.24 -89.31)"/><path class="cls-92" d="M892.43,1050.05,267,1050h-.25v-13.47H267l625.39.25h0v13.32Zm0-.71v-12.61h0L267,1037l.25-.25v13l-.26-.25,625-.1Z" transform="translate(-183.24 -89.31)"/><path class="cls-93" d="M892.43,1072.89l-625.39-.1h-.25v-13.47H267l625.39.24h0v13.32Zm0-.71v-12.61h0l-625.39.25.25-.25v13l-.26-.25,625-.1Z" transform="translate(-183.24 -89.31)"/><path class="cls-94" d="M892.43,1095.72,267,1095.63h-.25v-13.47H267l625.39.24h0v13.31Zm0-.7v-12.61h0l-625.39.25.25-.25v13l-.26-.25,625-.1Z" transform="translate(-183.24 -89.31)"/><path class="cls-95" d="M892.43,1118.56l-625.39-.1h-.25V1105H267l625.39.25h0v13.32Zm0-.7v-12.62h0l-625.39.24.25-.25v13L267,1118l625-.09Z" transform="translate(-183.24 -89.31)"/><path class="cls-96" d="M892.43,1141.4,267,1141.3h-.25v-13.47H267l625.39.25h0v13.32Zm0-.71v-12.61h0l-625.39.24.25-.25v13l-.26-.26,625-.1Z" transform="translate(-183.24 -89.31)"/><path class="cls-97" d="M892.43,1164.24l-625.39-.1h-.25v-13.47H267l625.39.24h0v13.32Zm0-.71v-12.61h0l-625.39.24.25-.25v13l-.26-.25,625-.1Z" transform="translate(-183.24 -89.31)"/><path class="cls-98" d="M892.43,1187.08,267,1187h-.25v-13.47H267l625.39.24h0v13.32Zm0-.71v-12.61h0L267,1174l.25-.25v13l-.26-.25,625-.1Z" transform="translate(-183.24 -89.31)"/></g><polygon class="cls-5" points="343.31 794.38 424.1 867.09 424.1 1090.59 343.31 1012.5 343.31 794.38"/><g class="cls-99"><path class="cls-100" d="M680.79,851.27l-497.29-.1h-.26V840.35h.25l497.29.25h0v10.67Zm0-.71v-10h0l-497.29.24.25-.25v10.31l-.25-.25,496.94-.1Z" transform="translate(-183.24 -89.31)"/><path class="cls-101" d="M680.79,869.43l-497.29-.1h-.26V858.51h.25l497.29.25h0v10.67Zm0-.71v-10h0L183.5,859l.25-.25v10.31l-.25-.25,496.94-.1Z" transform="translate(-183.24 -89.31)"/><path class="cls-102" d="M680.79,887.59l-497.29-.1h-.26V876.67h.25l497.29.25h0v10.67Zm0-.71v-10h0l-497.29.24.25-.25v10.31l-.25-.25,496.94-.1Z" transform="translate(-183.24 -89.31)"/><path class="cls-103" d="M680.79,905.75l-497.29-.1h-.26V894.83h.25l497.29.24h0v10.66Zm0-.71v-9.95h0l-497.29.25.25-.25v10.3l-.25-.25,496.94-.1Z" transform="translate(-183.24 -89.31)"/><path class="cls-104" d="M680.79,923.91l-497.29-.1h-.26V913h.25l497.29.24h0v10.66Zm0-.71v-10h0l-497.29.25.25-.25v10.3l-.25-.25,496.94-.1Z" transform="translate(-183.24 -89.31)"/><path class="cls-105" d="M680.79,942.07,183.5,942h-.26V931.16h.25l497.29.24h0v10.66Zm0-.71v-10h0l-497.29.25.25-.25v10.3l-.25-.25,496.94-.1Z" transform="translate(-183.24 -89.31)"/><path class="cls-106" d="M680.79,960.23l-497.29-.1h-.26V949.32h.25l497.29.24h0v10.66Zm0-.71v-9.95h0l-497.29.25.25-.25v10.3l-.25-.25,496.94-.1Z" transform="translate(-183.24 -89.31)"/><path class="cls-107" d="M680.79,978.39l-497.29-.1h-.26V967.48h.25l497.29.24h0v10.66Zm0-.71v-9.95h0L183.5,968l.25-.25V978l-.25-.25,496.94-.1Z" transform="translate(-183.24 -89.31)"/><path class="cls-108" d="M680.79,996.55l-497.29-.1h-.26V985.64h.25l497.29.24h0v10.66Zm0-.71v-10h0l-497.29.25.25-.25V996.2l-.25-.26,496.94-.1Z" transform="translate(-183.24 -89.31)"/><path class="cls-109" d="M680.79,1014.71l-497.29-.1h-.26V1003.8h.25l497.29.24h0v10.66Zm0-.71v-10h0l-497.29.25.25-.25v10.31l-.25-.26,496.94-.1Z" transform="translate(-183.24 -89.31)"/><path class="cls-110" d="M680.79,1032.87l-497.29-.1h-.26V1022h.25l497.29.24h0v10.66Zm0-.71v-10h0l-497.29.25.25-.25v10.31l-.25-.26,496.94-.1Z" transform="translate(-183.24 -89.31)"/><path class="cls-111" d="M680.79,1051l-497.29-.1h-.26v-10.81h.25l497.29.24h0V1051Zm0-.71v-10h0l-497.29.25.25-.25v10.31l-.25-.26,496.94-.1Z" transform="translate(-183.24 -89.31)"/><path class="cls-112" d="M680.79,1069.19l-497.29-.1h-.26v-10.81h.25l497.29.24h0v10.66Zm0-.71v-10h0l-497.29.25.25-.25v10.31l-.25-.26,496.94-.1Z" transform="translate(-183.24 -89.31)"/><path class="cls-113" d="M680.79,1087.35l-497.29-.1h-.26v-10.81h.25l497.29.24h0v10.66Zm0-.71v-10h0l-497.29.25.25-.25V1087l-.25-.26,496.94-.1Z" transform="translate(-183.24 -89.31)"/></g><path class="cls-6" d="M449.65,840.6v183.12L511.58,1087s2.7-214.08,0-211.39-36.35-35-36.35-35Z" transform="translate(-183.24 -89.31)"/><g class="cls-114"><path class="cls-115" d="M1301.57,134.75,263.5,134.56H263V112h.5l1038.07.49h0v22.22Zm0-1.41V112.53h0L263.5,113l.5-.5v21.52l-.51-.51,1037.36-.2Z" transform="translate(-183.24 -89.31)"/><path class="cls-116" d="M1301.57,172.66,263.5,172.47H263V149.94h.5l1038.07.49h0v22.22Zm0-1.41V150.44h0l-1038.07.49.5-.5V172l-.51-.51,1037.36-.19Z" transform="translate(-183.24 -89.31)"/><path class="cls-117" d="M1301.57,210.57l-1038.07-.2H263V187.84h.5l1038.07.49h0v22.23Zm0-1.41V188.34h0l-1038.07.49.5-.5v21.52l-.51-.51,1037.36-.19Z" transform="translate(-183.24 -89.31)"/><path class="cls-118" d="M1301.57,248.48l-1038.07-.2H263V225.75h.5l1038.07.49h0v22.23Zm0-1.42V226.25h0l-1038.07.49.5-.5v21.52l-.51-.51,1037.36-.2Z" transform="translate(-183.24 -89.31)"/><path class="cls-119" d="M1301.57,286.39l-1038.07-.2H263V263.66h.5l1038.07.49h0v22.23Zm0-1.42V264.16h0l-1038.07.49.5-.5v21.52l-.51-.51,1037.36-.2Z" transform="translate(-183.24 -89.31)"/><path class="cls-120" d="M1301.57,324.29,263.5,324.1H263V301.57h.5l1038.07.49h0v22.22Zm0-1.41V302.07h0l-1038.07.49.5-.5v21.52l-.51-.51,1037.36-.2Z" transform="translate(-183.24 -89.31)"/><path class="cls-121" d="M1301.57,362.2,263.5,362H263V339.48h.5l1038.07.49h0V362.2Zm0-1.41V340h0l-1038.07.49.5-.5V361.5l-.51-.51,1037.36-.2Z" transform="translate(-183.24 -89.31)"/><path class="cls-122" d="M1301.57,400.11l-1038.07-.2H263V377.38h.5l1038.07.49h0v22.23Zm0-1.41V377.88h0l-1038.07.49.5-.5V399.4l-.51-.51,1037.36-.19Z" transform="translate(-183.24 -89.31)"/><path class="cls-123" d="M1301.57,438l-1038.07-.2H263V415.29h.5l1038.07.49h0V438Zm0-1.41V415.79h0l-1038.07.49.5-.5v21.52l-.51-.51,1037.36-.19Z" transform="translate(-183.24 -89.31)"/><path class="cls-124" d="M1301.57,475.93l-1038.07-.2H263V453.2h.5l1038.07.49h0v22.23Zm0-1.42V453.7h0L263.5,454.2l.5-.5v21.52l-.51-.51,1037.36-.2Z" transform="translate(-183.24 -89.31)"/><path class="cls-125" d="M1301.57,513.84l-1038.07-.2H263V491.11h.5l1038.07.49h0v22.23Zm0-1.42V491.61h0l-1038.07.49.5-.5v21.52l-.51-.51,1037.36-.2Z" transform="translate(-183.24 -89.31)"/><path class="cls-126" d="M1301.57,551.74,263.5,551.55H263V529h.5l1038.07.49h0v22.22Zm0-1.41V529.52h0L263.5,530l.5-.5V551l-.51-.51,1037.36-.2Z" transform="translate(-183.24 -89.31)"/><path class="cls-127" d="M1301.57,589.65,263.5,589.46H263V566.93h.5l1038.07.49h0v22.22Zm0-1.41V567.43h0l-1038.07.49.5-.5V589l-.51-.51,1037.36-.2Z" transform="translate(-183.24 -89.31)"/><path class="cls-128" d="M1301.57,627.56l-1038.07-.2H263V604.83h.5l1038.07.49h0v22.23Zm0-1.41V605.33h0l-1038.07.49.5-.5v21.52l-.51-.51,1037.36-.19Z" transform="translate(-183.24 -89.31)"/></g><polygon class="cls-7" points="646.86 23.22 646.86 183.44 477.22 289.81 422.01 384.05 194.47 537.54 194.47 529.08 632.05 36.68 646.86 23.22"/><g class="cls-129"><path class="cls-130" d="M608.73,133.34h.71l1037.36.2-.51.51V112.53l.5.5-1038.07-.49h0Zm0,1.41V112.53h0L1646.8,112h.5v22.53h-.51Z" transform="translate(-183.24 -89.31)"/><path class="cls-131" d="M608.73,171.25h.71l1037.36.19-.51.51V150.44l.5.5-1038.07-.49h0Zm0,1.41V150.44h0l1038.07-.49h.5v22.53h-.51Z" transform="translate(-183.24 -89.31)"/><path class="cls-132" d="M608.73,209.16h.71l1037.36.19-.51.51V188.34l.5.5-1038.07-.49h0Zm0,1.41V188.34h0l1038.07-.49h.5v22.53h-.51Z" transform="translate(-183.24 -89.31)"/><path class="cls-133" d="M608.73,247.06h.71l1037.36.2-.51.51V226.25l.5.5-1038.07-.49h0Zm0,1.42V226.25h0l1038.07-.49h.5v22.53h-.51Z" transform="translate(-183.24 -89.31)"/><path class="cls-134" d="M608.73,285h.71l1037.36.2-.51.51V264.16l.5.5-1038.07-.49h0Zm0,1.42V264.16h0l1038.07-.49h.5v22.53h-.51Z" transform="translate(-183.24 -89.31)"/><path class="cls-135" d="M608.73,322.88h.71l1037.36.2-.51.51V302.07l.5.5-1038.07-.49h0Zm0,1.41V302.07h0l1038.07-.49h.5V324.1h-.51Z" transform="translate(-183.24 -89.31)"/><path class="cls-136" d="M608.73,360.79h.71l1037.36.2-.51.51V340l.5.5L608.73,340h0Zm0,1.41V340h0l1038.07-.49h.5V362h-.51Z" transform="translate(-183.24 -89.31)"/><path class="cls-137" d="M608.73,398.7h.71l1037.36.19-.51.51V377.88l.5.5-1038.07-.49h0Zm0,1.41V377.88h0l1038.07-.49h.5v22.53h-.51Z" transform="translate(-183.24 -89.31)"/><path class="cls-138" d="M608.73,436.61h.71l1037.36.19-.51.51V415.79l.5.5L608.73,415.8h0Zm0,1.41V415.79h0l1038.07-.49h.5v22.53h-.51Z" transform="translate(-183.24 -89.31)"/><path class="cls-139" d="M608.73,474.51h.71l1037.36.2-.51.51V453.7l.5.5-1038.07-.49h0Zm0,1.42V453.7h0l1038.07-.49h.5v22.53h-.51Z" transform="translate(-183.24 -89.31)"/><path class="cls-140" d="M608.73,512.42h.71l1037.36.2-.51.51V491.61l.5.5-1038.07-.49h0Zm0,1.42V491.61h0l1038.07-.49h.5v22.53h-.51Z" transform="translate(-183.24 -89.31)"/><path class="cls-141" d="M608.73,550.33h.71l1037.36.2-.51.51V529.52l.5.5-1038.07-.49h0Zm0,1.41V529.52h0L1646.8,529h.5v22.53h-.51Z" transform="translate(-183.24 -89.31)"/><path class="cls-142" d="M608.73,588.24h.71l1037.36.2-.51.51V567.43l.5.5-1038.07-.49h0Zm0,1.41V567.43h0l1038.07-.49h.5v22.53h-.51Z" transform="translate(-183.24 -89.31)"/><path class="cls-143" d="M608.73,626.15h.71l1037.36.19-.51.51V605.33l.5.5-1038.07-.49h0Zm0,1.41V605.33h0l1038.07-.49h.5v22.53h-.51Z" transform="translate(-183.24 -89.31)"/></g><polygon class="cls-8" points="896.95 23.22 896.95 183.44 1066.6 289.81 1121.8 384.05 1349.34 537.54 1349.34 529.08 911.76 36.68 896.95 23.22"/><text class="cls-144" transform="translate(288.76 1236.9)"><tspan class="cls-145">K</tspan><tspan class="cls-146" x="152.76" y="0">-</tspan><tspan x="289.84" y="0">R</tspan><tspan class="cls-147" x="460.89" y="0">O</tspan><tspan class="cls-148" x="637.17" y="0">O</tspan><tspan x="785.9" y="0">T</tspan></text></svg>