<?xml version="1.0" encoding="utf-8"?>
<!-- Generator: Adobe Illustrator 24.3.0, SVG Export Plug-In . SVG Version: 6.00 Build 0)  -->
<svg version="1.1" xmlns="http://www.w3.org/2000/svg" xmlns:xlink="http://www.w3.org/1999/xlink" x="0px" y="0px"
	 viewBox="0 0 1080 1080" style="enable-background:new 0 0 1080 1080;" xml:space="preserve">
<style type="text/css">
	.st0{fill:#151A2F;}
	.st1{fill:#39BEEC;}
	.st2{fill:#1B60A3;}
</style>
<g id="Layer_1">
	<g>
		<circle class="st0" cx="540" cy="540" r="531"/>
	</g>
</g>
<g id="Layer_4">
	<g id="Layer_4_1_">
		<polygon class="st1" points="773,665.7 307,401.6 307,337.3 773,601.4 		"/>
		<polygon class="st2" points="773,730 307,465.9 307,401.6 773,665.7 		"/>
	</g>
	<g id="Layer_6">
		<g id="XMLID_3_">
			<g>
				<polygon class="st1" points="773.9,336.8 773.7,337.1 773,337 773,337 773,337 773,336.8 539.9,204.6 540.1,204.2 				"/>
				<polygon class="st1" points="774.3,478.7 774.1,479.1 774,479 774,479 774,478.6 				"/>
				<polygon class="st1" points="773,478.8 773,479 773.5,479 773,479.1 773,478.6 				"/>
				<polygon class="st1" points="773,337 773,478.8 773,478.6 773,336.8 				"/>
				<polygon class="st1" points="773,337 773,337 773,336.8 773,337 				"/>
				<polygon class="st1" points="773.3,479 773,479 773,478.8 				"/>
				<polygon class="st1" points="773,478.6 773,479.1 540,347 540,347 539.9,346.7 539.7,346.7 539.9,346.5 				"/>
				<polygon class="st1" points="773,336.8 773,478.6 539.9,346.5 539.7,346.7 489.8,375 364.5,304 539.7,204.7 539.6,204.6 
					539.7,204.6 				"/>
				<polygon class="st1" points="540.1,346.7 540.3,347 540.3,347 539.9,346.8 540,346.7 				"/>
				<polygon class="st1" points="540.3,347 490.1,375.4 490.2,375.2 490,375 540,346.7 539.9,346.8 				"/>
				<polygon class="st1" points="539.9,204.6 539.9,204.7 364.8,304 364.6,303.9 364.5,304 364.4,303.8 539.8,204.4 				"/>
				<polygon class="st1" points="490.2,375.2 490.1,375.4 490,375.5 489.7,375.3 489.7,375.2 490,375 				"/>
				<polygon class="st1" points="490.1,375.4 490.1,375.5 490,375.5 				"/>
				<polygon class="st1" points="490,375.5 489.9,375.5 489.7,375.3 				"/>
				<polygon class="st1" points="490,375 489.7,375.2 489.7,375.3 364.4,304.2 364.5,304 364.6,304.1 364.8,304 				"/>
				<polygon class="st1" points="364.8,304 364.6,304.1 364.5,304 364.6,303.9 				"/>
			</g>
		</g>
		<g id="XMLID_4_">
			<g>
				<polygon class="st2" points="305.9,743.2 306.1,742.9 306,742.9 306,743 306,743 306,743.1 539.8,875.4 539.6,875.8 				"/>
				<polygon class="st2" points="305.7,601.2 305.9,600.9 306,601 306,601 306,601.4 				"/>
				<polygon class="st2" points="306,601.2 306,601 306.2,601 306,600.9 306,601.3 				"/>
				<polygon class="st2" points="306,742.9 306,601.2 306,601.3 306,743.1 				"/>
				<polygon class="st2" points="306,743 306,742.9 306,743.1 306,743 				"/>
				<polygon class="st2" points="306.7,601 307,601 307,601.2 				"/>
				<polygon class="st2" points="307,601.3 307,600.9 539.9,733 539.9,733 540.1,733.3 540.3,733.2 540.1,733.5 				"/>
				<polygon class="st2" points="307,743.1 307,601.3 540.1,733.5 540.3,733.2 590.2,704.9 715.5,776 540.3,875.3 540.4,875.4 
					540.3,875.4 				"/>
				<polygon class="st2" points="539.6,733.3 539.5,733 539.5,733 539.8,733.2 539.8,733.2 				"/>
				<polygon class="st2" points="539.5,733 589.6,704.6 589.5,704.8 589.7,704.9 539.8,733.2 539.8,733.2 				"/>
				<polygon class="st2" points="539.9,875.4 539.8,875.3 715,776 715.1,776 715.2,776 715.3,776.2 540,875.6 				"/>
				<polygon class="st2" points="589.5,704.8 589.6,704.6 589.7,704.5 590,704.7 590,704.7 589.7,704.9 				"/>
				<polygon class="st2" points="589.6,704.6 589.7,704.5 589.7,704.5 				"/>
				<polygon class="st2" points="589.7,704.9 590,704.7 590,704.7 715.3,775.8 715.2,776 715.1,775.9 715,776 				"/>
				<polygon class="st2" points="589.7,704.5 589.9,704.5 590,704.7 				"/>
				<polygon class="st2" points="715,776 715.1,775.9 715.2,776 715.1,776 				"/>
			</g>
		</g>
	</g>
</g>
</svg>
