<svg id="Layer_1" data-name="Layer 1" xmlns="http://www.w3.org/2000/svg" xmlns:xlink="http://www.w3.org/1999/xlink" viewBox="0 0 1072.77 1025.69"><defs><style>.cls-1,.cls-2,.cls-3{isolation:isolate;}.cls-2{fill:url(#linear-gradient);}.cls-3{fill:url(#linear-gradient-2);}</style><linearGradient id="linear-gradient" x1="536.39" y1="24.08" x2="536.39" y2="1003.18" gradientUnits="userSpaceOnUse"><stop offset="0" stop-color="#ffdd02"/><stop offset="1" stop-color="#f89b00"/></linearGradient><linearGradient id="linear-gradient-2" x1="536.39" y1="245.08" x2="536.39" y2="812.99" gradientUnits="userSpaceOnUse"><stop offset="0" stop-color="#ca8402"/><stop offset="1"/></linearGradient></defs><polygon class="cls-1" points="866.7 879.16 1072.77 337.92 536.39 0 0 337.92 206.07 879.16 536.39 1025.69 866.7 879.16"/><polygon class="cls-2" points="843.66 863.31 1016.25 346.66 536.39 24.08 56.52 346.66 229.12 863.31 536.39 1003.18 843.66 863.31"/><polygon class="cls-3" points="786.52 861.1 938.04 359.42 536.39 46.2 134.74 359.42 286.25 861.1 536.39 996.91 786.52 861.1"/><polygon class="cls-1" points="758.39 808.91 892.87 379.72 536.39 85.65 179.9 379.72 314.38 808.91 536.39 929.45 758.39 808.91"/></svg>