<?xml version="1.0" encoding="utf-8"?>
<!-- Generator: Adobe Illustrator 24.3.0, SVG Export Plug-In . SVG Version: 6.00 Build 0)  -->
<svg version="1.1" xmlns="http://www.w3.org/2000/svg" xmlns:xlink="http://www.w3.org/1999/xlink" x="0px" y="0px"
	 viewBox="0 0 1080 1080" style="enable-background:new 0 0 1080 1080;" xml:space="preserve">
<style type="text/css">
	.st0{fill:#FFFFFF;}
	.st1{fill:#206994;}
	.st2{fill:#367FAC;}
	.st3{fill:#85B3CB;}
	.st4{fill:#488DB4;}
	.st5{fill:#1B5F86;}
	.st6{fill:#2272A5;}
	.st7{fill:#CA4B06;}
	.st8{fill:#F8782F;}
	.st9{fill:#F6681C;}
	.st10{fill:#F8A77A;}
	.st11{fill:#FA965A;}
	.st12{fill:#F98748;}
	.st13{fill:#E15309;}
</style>
<g id="Layer_1">
	<g>
		<circle class="st0" cx="540" cy="540" r="531"/>
	</g>
</g>
<g id="Layer_3">
	<g>
		<polygon class="st1" points="434.7,260.3 224,446.9 434.7,446.9 		"/>
		<polygon class="st2" points="434.7,446.8 224,633.2 434.7,633.2 		"/>
		<polygon class="st3" points="434.7,633.2 224,819.7 434.7,819.7 		"/>
		<polygon class="st3" points="434.7,819.7 645.3,633.2 434.7,633.2 		"/>
		<polygon class="st4" points="434.7,633.2 645.3,446.8 434.7,446.8 		"/>
		<polygon class="st5" points="434.7,446.8 645.3,260.3 434.7,260.3 		"/>
		<polygon class="st6" points="224,633.4 434.7,446.9 224,446.9 		"/>
		<polygon class="st7" points="645.3,446.8 856,260.3 645.3,260.3 		"/>
		<polygon class="st8" points="645.3,633.2 856,446.8 645.3,446.8 		"/>
		<polygon class="st9" points="645.3,446.8 434.7,633.2 645.3,633.2 		"/>
		<polygon class="st10" points="645.3,633.2 434.7,819.7 645.3,819.7 		"/>
		<polygon class="st11" points="645.3,819.7 856,633.2 645.3,633.2 		"/>
		<polygon class="st12" points="856,446.8 645.3,633.2 856,633.2 		"/>
		<polygon class="st13" points="645.3,260.3 434.7,446.8 645.3,446.8 		"/>
	</g>
</g>
</svg>
