<svg xmlns="http://www.w3.org/2000/svg" xmlns:xlink="http://www.w3.org/1999/xlink" width="580.599" height="460.435" viewBox="0 0 580.599 460.435">
  <defs>
    <linearGradient id="linear-gradient" x1="0.5" x2="0.5" y2="1" gradientUnits="objectBoundingBox">
      <stop offset="0" stop-color="#00c4cc"/>
      <stop offset="1" stop-color="#006266" stop-opacity="0"/>
    </linearGradient>
  </defs>
  <g id="Group_2116" data-name="Group 2116" transform="translate(-384 -351.508)">
    <path id="Icon_awesome-layer-group" data-name="Icon awesome-layer-group" d="M14.075,51.01,278.223,87.424a91.628,91.628,0,0,0,24.142,0L566.513,51.01c18.767-2.588,18.767-11.206,0-13.794L302.376.8a91.629,91.629,0,0,0-24.142,0L14.075,37.212c-18.767,2.588-18.767,11.21,0,13.8ZM566.524,81.431l-65.872-9.073-183.3,25.249A199.023,199.023,0,0,1,290.3,99.389a199.145,199.145,0,0,1-27.057-1.782L79.959,72.358,14.075,81.431c-18.767,2.585-18.767,11.2,0,13.784L278.223,131.6a91.922,91.922,0,0,0,24.142,0L566.524,95.215c18.767-2.585,18.767-11.2,0-13.784Zm0,44.04L500.9,116.433,317.356,141.716A199.021,199.021,0,0,1,290.3,143.5a199.143,199.143,0,0,1-27.057-1.782L79.71,116.433l-65.634,9.039c-18.767,2.585-18.767,11.2,0,13.784l264.148,36.386a91.922,91.922,0,0,0,24.142,0l264.159-36.386C585.291,136.671,585.291,128.056,566.524,125.471Z" transform="translate(384 635.505)" opacity="0.2" fill="url(#linear-gradient)"/>
    <g id="Group_2115" data-name="Group 2115" transform="translate(142.617 991.859) rotate(-90)">
      <ellipse id="Ellipse_260" data-name="Ellipse 260" cx="32.837" cy="33.281" rx="32.837" ry="33.281" transform="translate(505.141 343.858)" fill="#00c4cc"/>
      <g id="Icon_ionic-ios-rocket" data-name="Icon ionic-ios-rocket" transform="translate(324.827 274.383)">
        <path id="Path_2391" data-name="Path 2391" d="M317.228,7.65a3.348,3.348,0,0,0-2.5-2.578c-41.249-10.085-136.561,25.856-188.2,77.493a223.2,223.2,0,0,0-25.1,29.648c-15.923-1.441-31.846-.227-45.419,5.687C17.72,134.732,6.573,178.711,3.465,197.591a6.792,6.792,0,0,0,7.431,7.886l61.494-6.748a136.7,136.7,0,0,0,.834,13.876,13.762,13.762,0,0,0,4.019,8.417l23.809,23.809a13.762,13.762,0,0,0,8.417,4.019,136.438,136.438,0,0,0,13.8.834L116.52,311.1a6.792,6.792,0,0,0,7.886,7.431c18.88-3.033,62.935-14.179,79.692-52.471,5.914-13.573,7.128-29.42,5.763-45.267a223.558,223.558,0,0,0,29.723-25.1C291.448,144.134,327.161,50.946,317.228,7.65ZM193.482,128.894a32.384,32.384,0,1,1,45.8,0A32.355,32.355,0,0,1,193.482,128.894Z" transform="translate(-3.366 -3.372)" fill="#fdda00"/>
        <path id="Path_2392" data-name="Path 2392" d="M75.7,60.139h0c-3.185,3.185-8.872,5-15.013,6.066A20.409,20.409,0,0,1,37.178,42.7c1.062-6.142,2.806-11.829,5.99-14.937l.076-.076a2.535,2.535,0,0,0-2.123-4.322,34.856,34.856,0,0,0-20.4,9.933C7.076,46.945,5.787,97.6,5.787,97.6s50.727-1.289,64.375-14.938a34.626,34.626,0,0,0,9.933-20.4A2.594,2.594,0,0,0,75.7,60.139Z" transform="translate(20.32 192.01)" fill="#00c4cc"/>
      </g>
    </g>
  </g>
</svg>
